<svg xmlns="http://www.w3.org/2000/svg" viewBox="0 0 64 64" role="img" aria-label="SeaBus icon">
  <circle cx="32" cy="32" r="32" fill="#B1A59E"/>
  <g fill="#ffffff">
    <path d="M32 11l3 0 0 5 5 0 0 3 -5 0 0 5 -3 0 0 -5 -5 0 0 -3 5 0z"/>
    <path d="M22 22h20l2 10H20z"/>
    <rect x="14" y="34" width="36" height="8" rx="1.6"/>
    <rect x="18" y="36" width="6" height="4" rx="0.8" fill="#B1A59E"/>
    <rect x="26" y="36" width="6" height="4" rx="0.8" fill="#B1A59E"/>
    <rect x="34" y="36" width="6" height="4" rx="0.8" fill="#B1A59E"/>
    <rect x="42" y="36" width="6" height="4" rx="0.8" fill="#B1A59E"/>
    <path d="M12 44c2 2 4 3 6 3s4-1 6-2 4-2 6-2 4 1 6 2 4 2 6 2 4-1 6-3v4c-2 2-4 3-6 3s-4-1-6-2-4-2-6-2-4 1-6 2-4 2-6 2-4-1-6-3z"/>
    <path d="M12 50c2 2 4 3 6 3s4-1 6-2 4-2 6-2 4 1 6 2 4 2 6 2 4-1 6-3v4c-2 2-4 3-6 3s-4-1-6-2-4-2-6-2-4 1-6 2-4 2-6 2-4-1-6-3z"/>
  </g>
</svg>
