<svg xmlns="http://www.w3.org/2000/svg" viewBox="0 0 64 64" role="img" aria-label="WCE icon">
  <circle cx="32" cy="32" r="32" fill="#7A2A93"/>
  <g fill="#ffffff">
    <path d="M20 16h24c4 0 7 3 7 7v19c0 3-2 6-5 7l5 7H42l-2-3H24l-2 3h-9l5-7c-3-1-5-4-5-7V23c0-4 3-7 7-7z"/>
    <rect x="22" y="20" width="20" height="5" rx="2.5" fill="#7A2A93"/>
    <circle cx="32" cy="32" r="4.5" fill="#7A2A93"/>
    <circle cx="21" cy="40" r="2" fill="#7A2A93"/>
    <circle cx="43" cy="40" r="2" fill="#7A2A93"/>
    <circle cx="25" cy="40" r="1.2" fill="#7A2A93"/>
    <circle cx="39" cy="40" r="1.2" fill="#7A2A93"/>
    <path d="M24 49h16l2 3H22z" fill="#7A2A93"/>
  </g>
</svg>
